<?xml version="1.0" standalone="no"?>
<!DOCTYPE svg PUBLIC "-//W3C//DTD SVG 20010904//EN"
 "http://www.w3.org/TR/2001/REC-SVG-20010904/DTD/svg10.dtd">
<svg version="1.0" xmlns="http://www.w3.org/2000/svg"
 width="1521.000000pt" height="1522.000000pt" viewBox="0 0 1521.000000 1522.000000"
 preserveAspectRatio="xMidYMid meet">

<g transform="translate(0.000000,1522.000000) scale(0.100000,-0.100000)"
fill="#000000" stroke="none">
<path d="M0 7610 l0 -7610 7605 0 7605 0 0 7610 0 7610 -7605 0 -7605 0 0
-7610z m8100 4214 c179 -19 388 -50 500 -75 47 -11 135 -30 195 -44 113 -26
159 -39 330 -99 105 -36 168 -64 496 -219 391 -185 704 -404 1058 -742 161
-154 405 -436 495 -571 25 -38 82 -116 125 -174 128 -169 378 -589 397 -667 4
-15 13 -37 20 -48 21 -33 76 -195 77 -231 1 -19 8 -36 15 -39 6 -2 12 -9 12
-15 0 -6 -4 -8 -10 -5 -5 3 -20 8 -32 10 -12 3 -26 12 -31 20 -7 13 -12 14
-23 4 -19 -15 -36 -1 -53 46 -7 21 -20 45 -28 55 -9 10 -26 48 -38 84 -25 74
-42 99 -62 92 -7 -3 -13 -1 -13 4 0 5 -6 7 -13 4 -17 -6 -51 31 -42 45 3 7 -3
11 -15 11 -16 0 -20 4 -16 15 4 10 -3 19 -18 25 -14 5 -27 18 -31 29 -3 10
-13 22 -21 25 -8 3 -13 10 -9 15 3 5 -4 12 -15 16 -31 10 -23 22 11 17 22 -3
30 -1 25 7 -4 6 -2 11 4 11 8 0 9 -10 5 -30 -5 -22 -3 -30 7 -30 13 0 15 14 9
68 0 7 -18 28 -38 47 -21 19 -38 38 -38 42 -3 49 -20 67 -62 66 -7 -1 -13 3
-13 8 0 12 -38 49 -50 49 -5 0 -10 6 -10 14 0 8 -9 18 -20 21 -11 4 -18 10
-15 15 3 5 -4 11 -15 15 -26 8 -109 95 -116 122 -3 12 -12 24 -20 27 -8 3 -19
17 -24 31 -5 14 -16 25 -25 25 -11 0 -14 6 -9 25 5 21 3 25 -17 25 -13 0 -32
9 -44 20 -48 46 -66 60 -75 60 -5 0 -10 5 -10 10 0 18 -43 70 -57 70 -7 0 -18
11 -23 24 -5 14 -19 26 -32 28 -17 2 -22 9 -20 24 2 13 -4 24 -14 28 -19 7
-34 -3 -37 -25 -5 -29 -18 -41 -33 -28 -20 16 -18 26 7 32 12 3 19 9 16 14 -3
4 -10 27 -16 51 -7 23 -17 42 -24 42 -7 0 -33 20 -57 45 -24 25 -49 45 -56 45
-7 0 -14 6 -17 14 -5 12 -11 12 -31 3 -23 -11 -24 -13 -10 -24 9 -6 22 -9 30
-6 8 3 14 -1 14 -11 0 -32 -49 -15 -104 36 -20 18 -13 23 22 19 6 -1 20 3 30
8 16 10 16 10 0 11 -10 0 -18 4 -18 8 0 5 -17 13 -37 18 -31 7 -39 14 -41 37
-2 15 -8 27 -13 27 -5 0 -9 8 -9 18 0 10 -3 13 -8 7 -4 -6 -20 -16 -35 -23
-24 -10 -29 -9 -34 4 -4 10 1 20 11 26 16 9 15 13 -11 40 -33 36 -134 112
-148 113 -5 1 -9 6 -8 13 3 13 -35 37 -44 28 -4 -3 -12 -1 -20 5 -9 9 -13 8
-13 0 0 -6 -5 -11 -11 -11 -6 0 -9 7 -5 15 3 8 2 15 -2 16 -17 2 -39 8 -62 17
-18 8 -20 11 -7 11 9 1 17 5 17 11 0 5 -17 8 -37 7 -31 -2 -37 1 -43 22 -6 25
-30 42 -30 21 0 -7 -8 -9 -20 -5 -11 4 -20 2 -20 -4 0 -13 41 -56 60 -64 12
-4 11 -6 -2 -6 -10 -1 -18 -7 -18 -13 0 -7 -6 -4 -12 7 -6 11 -14 22 -18 25
-4 3 -9 11 -11 18 -3 8 -29 22 -59 33 -64 23 -63 22 -54 7 4 -7 -4 -2 -19 12
-15 14 -27 31 -27 38 0 6 -6 12 -14 12 -8 0 -22 10 -30 22 -9 12 -19 19 -22
15 -4 -4 -13 1 -20 11 -8 10 -13 12 -14 5 0 -7 -8 -13 -18 -13 -10 0 -24 6
-31 13 -11 9 -12 9 -7 0 5 -9 2 -11 -8 -7 -9 3 -17 -2 -21 -15 -3 -12 -13 -21
-21 -21 -8 0 -14 -4 -14 -10 0 -6 -10 -6 -27 1 -16 6 -30 6 -35 1 -11 -11 -48
-4 -48 10 0 5 5 6 11 3 6 -4 6 0 -1 12 -9 14 -21 18 -41 15 -21 -3 -29 0 -29
11 0 9 -11 17 -26 19 -35 4 -49 27 -39 64 4 16 9 24 12 17 2 -7 14 -8 31 -4
33 9 38 45 7 47 -62 3 -62 3 -57 29 5 28 -12 34 -26 9 -7 -13 -12 -13 -40 3
-18 10 -35 26 -38 36 -8 25 -30 15 -26 -11 3 -23 -13 -31 -20 -10 -5 15 -28 1
-28 -18 0 -8 9 -14 19 -14 21 0 26 -10 36 -78 6 -36 4 -41 -9 -36 -9 3 -16 10
-16 15 0 5 -7 9 -15 9 -8 0 -15 -5 -15 -10 0 -6 -13 -1 -29 11 -16 12 -37 19
-45 16 -9 -4 -16 -3 -16 1 -1 4 -12 21 -26 37 -22 25 -25 27 -21 9 2 -12 1
-27 -3 -34 -12 -19 -33 -1 -27 22 5 17 2 19 -21 15 -19 -4 -31 1 -43 17 -13
17 -26 22 -46 19 -19 -3 -34 1 -42 11 -8 9 -28 16 -45 17 -17 0 -26 3 -20 5 9
4 8 13 -3 34 -8 17 -12 34 -8 40 3 5 1 10 -4 10 -6 0 -11 -7 -11 -15 0 -8 -4
-15 -10 -15 -5 0 -7 13 -3 30 3 18 1 30 -5 30 -6 0 -17 3 -26 6 -9 3 -16 1
-16 -5 0 -6 7 -11 15 -11 19 0 19 -24 0 -44 -8 -8 -12 -22 -9 -30 8 -20 -27
-22 -59 -4 -12 7 -33 12 -47 13 -15 0 -29 8 -36 22 -6 13 -19 32 -29 43 -10
11 -13 20 -7 20 7 0 12 8 12 18 0 14 -4 12 -20 -8 l-20 -25 -17 21 c-20 25
-63 41 -63 25 0 -6 9 -11 19 -11 28 0 35 -17 10 -23 -15 -4 -19 -11 -15 -25 6
-17 2 -19 -26 -17 -18 2 -37 4 -41 4 -5 1 -6 5 -3 9 10 16 -10 30 -53 37 -41
7 -44 6 -38 -14 6 -25 -8 -28 -23 -3 -8 13 -13 14 -17 4 -4 -10 -9 -9 -24 4
-14 13 -18 26 -14 58 l5 41 -17 -48 c-17 -47 -18 -48 -51 -42 -23 4 -32 3 -27
-4 11 -18 -32 -12 -70 9 -20 11 -40 18 -46 15 -5 -4 -9 5 -9 19 0 21 5 26 25
26 14 0 25 5 25 10 0 19 30 10 31 -10 3 -39 4 -43 17 -47 8 -3 12 7 12 31 0
19 5 38 11 41 6 5 2 13 -11 22 -20 14 -56 14 -115 0 -11 -2 -25 0 -32 5 -7 5
-17 7 -23 3 -5 -3 -10 1 -10 9 0 19 -11 21 -27 5 -9 -9 -18 -8 -35 3 -13 8
-28 13 -35 11 -18 -6 7 -43 28 -43 13 0 16 -6 12 -21 -5 -19 -4 -20 16 -9 17
8 26 8 36 0 10 -8 16 -7 24 7 6 10 11 14 11 10 0 -5 -9 -21 -21 -35 -21 -27
-50 -34 -81 -19 -12 5 -18 3 -18 -4 0 -6 -6 -9 -14 -6 -8 3 -22 -1 -33 -8 -17
-14 -17 -14 3 -15 12 0 24 -7 27 -15 7 -17 -9 -30 -18 -16 -3 6 -12 8 -20 5
-9 -4 -16 3 -20 19 -6 24 -48 43 -67 30 -15 -8 -8 -42 10 -52 13 -8 10 -10
-18 -9 -37 1 -63 15 -54 29 3 5 1 9 -5 9 -5 0 -13 -5 -16 -10 -4 -6 -11 -8
-16 -5 -5 4 -9 -3 -9 -14 0 -26 -26 -18 -33 10 -7 25 -23 25 -30 0 -3 -13 -13
-19 -26 -18 -12 1 -19 7 -17 13 9 23 -8 24 -30 3 -18 -17 -26 -19 -43 -9 -12
6 -25 8 -30 6 -11 -7 -61 18 -71 35 -11 16 -30 2 -30 -22 0 -10 -7 -19 -15
-19 -8 0 -15 7 -15 15 0 11 -5 12 -26 5 -32 -13 -37 -12 -29 0 3 6 -1 10 -9
10 -9 0 -16 -4 -16 -10 0 -11 -53 -14 -63 -4 -4 4 -26 7 -49 8 -42 1 -43 0
-52 -37 -5 -20 -14 -37 -19 -37 -5 0 -6 7 -3 16 5 13 2 15 -15 11 -12 -3 -31
-1 -42 5 -14 7 -18 7 -12 -2 5 -8 -3 -9 -30 -4 -37 7 -38 6 -31 -19 5 -23 3
-27 -21 -33 -16 -3 -40 -10 -55 -16 -14 -5 -36 -7 -47 -3 -11 3 -30 1 -41 -5
-12 -7 -25 -8 -28 -4 -4 4 -1 9 6 11 10 4 10 8 1 19 -13 16 -39 19 -39 3 0 -5
4 -8 9 -5 4 3 6 -6 3 -19 -2 -14 -8 -22 -13 -19 -5 3 -9 0 -9 -5 0 -6 -10 -10
-22 -10 -17 1 -19 2 -5 6 9 2 17 11 17 19 0 28 -35 10 -38 -19 -3 -25 -7 -28
-29 -22 -16 4 -22 2 -18 -5 3 -5 1 -10 -5 -10 -26 0 -78 -33 -83 -52 -4 -14
-10 -17 -19 -12 -7 5 -26 9 -43 9 -24 0 -31 5 -33 23 -2 13 -9 21 -15 19 -7
-2 -11 -12 -9 -22 3 -15 -1 -16 -25 -11 -15 4 -40 19 -55 34 -27 25 -34 22
-29 -15 3 -18 -16 -16 -23 2 -8 21 -25 19 -22 -2 7 -42 -35 -69 -58 -37 -10
13 -12 13 -12 -5 0 -12 4 -21 9 -21 9 0 37 -25 37 -34 0 -11 -19 -6 -34 10
-11 10 -23 13 -38 8 -13 -5 -26 -7 -29 -6 -4 1 -5 -8 -2 -19 5 -17 3 -18 -21
-10 -21 9 -27 7 -36 -8 -8 -16 -16 -18 -46 -11 -33 8 -40 6 -56 -16 -11 -13
-24 -22 -29 -19 -5 4 -9 1 -9 -4 0 -6 -13 -11 -30 -11 -20 0 -30 5 -30 15 0 8
-4 15 -10 15 -5 0 -10 -7 -10 -15 0 -21 -30 -19 -46 3 -12 15 -15 15 -24 2 -5
-8 -10 -25 -10 -38 0 -24 -27 -72 -40 -72 -4 0 -10 9 -13 20 -4 14 -11 18 -24
14 -14 -4 -13 -1 5 15 13 11 21 25 17 31 -4 6 5 10 20 10 17 0 25 5 23 12 -6
17 -78 11 -99 -8 -8 -8 -21 -14 -27 -14 -7 0 -12 -4 -12 -10 0 -15 -63 -29
-77 -17 -10 7 -13 4 -13 -13 0 -15 -5 -20 -14 -17 -7 3 -26 -8 -42 -24 -15
-16 -37 -29 -48 -29 -23 -1 -79 -29 -58 -30 6 0 12 -6 12 -14 0 -11 -11 -13
-44 -10 -33 3 -45 0 -50 -11 -3 -9 -18 -15 -36 -15 -29 0 -111 -43 -118 -62
-2 -4 -8 -6 -12 -3 -5 3 -15 -3 -22 -13 -7 -10 -26 -22 -41 -26 -15 -4 -54
-31 -85 -61 -31 -30 -60 -55 -64 -55 -4 0 -13 -9 -20 -20 -7 -11 -20 -20 -28
-20 -17 0 -150 -124 -168 -155 -6 -12 -21 -20 -38 -20 -20 0 -31 -8 -43 -32
-9 -18 -20 -33 -25 -33 -5 0 -24 -18 -43 -40 -19 -22 -39 -40 -44 -40 -18 0
-9 39 13 55 20 13 21 18 10 36 -11 17 -11 24 0 37 143 183 265 315 379 412 29
25 71 62 93 83 21 20 42 37 45 37 3 0 19 14 36 31 16 17 97 78 178 136 238
169 428 280 662 386 145 66 399 162 640 242 211 71 622 155 875 180 36 3 99
11 140 17 80 11 567 27 660 21 30 -2 120 -11 200 -19z m-610 -474 c0 -5 -2
-10 -4 -10 -3 0 -8 5 -11 10 -3 6 -1 10 4 10 6 0 11 -4 11 -10z m-560 -50 c0
-5 -5 -10 -11 -10 -5 0 -7 5 -4 10 3 6 8 10 11 10 2 0 4 -4 4 -10z m-129 -33
c-13 -13 -26 -3 -16 12 3 6 11 8 17 5 6 -4 6 -10 -1 -17z m1494 13 c3 -5 1
-10 -4 -10 -6 0 -11 5 -11 10 0 6 2 10 4 10 3 0 8 -4 11 -10z m-1015 -90 c0
-5 -4 -10 -10 -10 -5 0 -10 5 -10 10 0 6 5 10 10 10 6 0 10 -4 10 -10z m-269
-43 c-10 -9 -11 -8 -5 6 3 10 9 15 12 12 3 -3 0 -11 -7 -18z m1689 -7 c0 -5
-2 -10 -4 -10 -3 0 -8 5 -11 10 -3 6 -1 10 4 10 6 0 11 -4 11 -10z m417 -25
c0 -8 -4 -15 -9 -15 -4 0 -8 7 -8 15 0 8 4 15 8 15 5 0 9 -7 9 -15z m-3040
-21 c-3 -3 -12 -4 -19 -1 -8 3 -5 6 6 6 11 1 17 -2 13 -5z m3003 -14 c0 -5 7
-10 15 -10 8 0 15 -4 15 -10 0 -5 -11 -10 -24 -10 -13 0 -27 -6 -29 -12 -4
-10 -8 -9 -16 2 -6 9 -7 16 -1 18 6 2 10 10 10 18 0 8 7 14 15 14 8 0 15 -4
15 -10z m470 -160 c0 -16 -13 -11 -42 15 -18 15 -26 30 -22 40 5 13 12 10 35
-15 16 -16 29 -34 29 -40z m-4097 -45 c-22 -30 -33 -32 -26 -5 3 11 9 17 14
14 5 -3 9 0 9 5 0 6 5 11 10 11 6 0 3 -11 -7 -25z m-109 0 c3 -8 1 -15 -3 -15
-5 0 -11 7 -15 15 -3 8 -1 15 3 15 5 0 11 -7 15 -15z m4296 -15 c26 -22 23
-24 -15 -10 -14 5 -23 14 -20 20 8 13 8 13 35 -10z m10 -66 c0 -9 -7 -14 -17
-12 -25 5 -28 28 -4 28 12 0 21 -6 21 -16z m150 -64 c0 -5 -5 -10 -11 -10 -5
0 -7 5 -4 10 3 6 8 10 11 10 2 0 4 -4 4 -10z m230 -15 c0 -8 -4 -15 -10 -15
-5 0 -7 7 -4 15 4 8 8 15 10 15 2 0 4 -7 4 -15z m14 -44 c3 -5 16 -7 27 -4 19
5 20 3 13 -18 -4 -13 -8 -31 -9 -39 -2 -22 -15 -41 -25 -35 -10 6 -1 45 11 45
19 0 8 21 -15 30 -29 11 -43 30 -22 30 8 0 17 -4 20 -9z m106 -76 c-14 -16
-50 -21 -50 -6 0 11 18 19 44 20 15 1 16 -2 6 -14z m-20 -85 c0 -5 -2 -10 -4
-10 -3 0 -8 5 -11 10 -3 6 -1 10 4 10 6 0 11 -4 11 -10z m207 -106 c-3 -3 -12
-4 -19 -1 -8 3 -5 6 6 6 11 1 17 -2 13 -5z m83 -54 c0 -5 -2 -10 -4 -10 -3 0
-8 5 -11 10 -3 6 -1 10 4 10 6 0 11 -4 11 -10z m-17 -50 c3 -11 2 -20 -2 -20
-3 0 -12 9 -19 20 -10 16 -10 20 2 20 7 0 16 -9 19 -20z m-6313 -159 c0 -6 -4
-13 -10 -16 -5 -3 -10 1 -10 9 0 9 5 16 10 16 6 0 10 -4 10 -9z m20 -42 c0
-20 -24 -26 -35 -9 -8 13 14 42 26 34 5 -3 9 -14 9 -25z m-106 -54 c-4 -8 -8
-15 -10 -15 -2 0 -4 7 -4 15 0 8 4 15 10 15 5 0 7 -7 4 -15z m6809 -30 c-4
-11 -8 -12 -18 -2 -16 15 -10 28 10 21 7 -3 11 -12 8 -19z m-2997 -338 c16
-18 45 -57 64 -87 39 -61 45 -120 17 -164 -15 -22 -16 -49 -10 -218 4 -146 9
-195 19 -201 9 -5 14 -26 14 -55 0 -70 9 -78 63 -62 39 10 50 10 78 -4 18 -9
49 -16 71 -16 33 0 38 3 38 24 0 13 -7 29 -15 36 -8 7 -15 18 -15 26 0 19 60
141 75 154 20 17 44 0 71 -49 13 -25 29 -53 36 -62 9 -14 7 -23 -15 -48 -23
-28 -25 -37 -20 -88 3 -32 9 -62 14 -67 10 -11 36 9 44 35 11 32 68 25 100
-12 39 -47 30 -69 -41 -105 -60 -30 -64 -31 -255 -38 -106 -4 -201 -12 -210
-17 -28 -14 -32 -168 -15 -614 9 -225 20 -563 26 -750 9 -332 15 -497 25 -720
4 -93 0 -145 -29 -330 -19 -121 -42 -254 -52 -295 -9 -41 -20 -95 -25 -120
-15 -77 -70 -294 -79 -317 -5 -13 -13 -23 -18 -23 -23 0 -119 431 -173 770
l-31 195 11 270 c6 149 16 432 21 630 6 198 15 468 20 600 10 253 12 385 11
577 -1 103 -3 118 -19 127 -10 6 -106 13 -213 17 -159 5 -202 10 -239 26 -85
36 -100 71 -53 120 37 39 76 38 100 -2 30 -51 48 -35 51 47 3 64 0 74 -18 85
-26 17 -26 24 10 90 38 69 53 83 77 69 19 -9 23 -17 62 -102 l22 -47 -21 -36
c-12 -19 -19 -40 -15 -46 10 -15 70 -12 109 7 30 14 42 14 74 5 22 -7 44 -12
49 -12 6 0 13 26 17 57 4 31 13 64 20 73 10 11 15 63 18 200 4 163 2 190 -14
225 -9 22 -18 52 -18 66 0 46 112 209 144 209 8 0 27 -15 42 -33z m3488 -154
c-17 -17 -18 -17 -11 0 4 10 7 24 7 30 0 8 3 8 11 0 9 -9 7 -16 -7 -30z
m-8370 -504 c33 -15 60 -73 52 -111 -6 -28 -119 -299 -243 -578 -122 -274
-283 -654 -283 -667 0 -19 815 -20 827 0 4 6 10 163 13 347 4 220 10 344 17
361 33 75 134 78 175 6 10 -16 14 -116 18 -367 l5 -345 55 -8 c30 -4 117 -4
193 -1 l138 6 26 52 c79 156 215 283 354 329 85 29 149 -7 149 -84 0 -42 -27
-69 -140 -142 -130 -84 -207 -229 -198 -376 10 -180 128 -310 315 -348 154
-32 307 18 423 136 79 80 111 148 118 252 11 165 -64 292 -220 374 -81 43
-108 74 -108 125 0 53 44 90 104 90 129 0 340 -183 402 -347 10 -27 23 -52 28
-56 14 -10 628 3 640 13 4 4 11 160 15 347 7 361 8 369 58 392 53 24 103 9
128 -39 12 -24 15 -76 15 -281 0 -235 1 -251 18 -244 38 16 63 16 119 0 88
-27 257 -32 346 -10 194 46 309 151 265 242 -17 36 -95 88 -161 109 -29 9
-101 18 -162 21 -90 4 -126 1 -198 -16 -49 -11 -102 -21 -119 -21 -35 0 -88
48 -88 80 0 95 146 153 380 153 200 0 337 -45 449 -149 239 -221 55 -544 -353
-621 -60 -11 -116 -14 -216 -10 -118 5 -165 13 -261 43 -14 5 -17 -13 -22
-132 -4 -75 -7 -237 -7 -358 0 -122 -5 -239 -10 -261 -19 -83 -101 -112 -156
-54 l-29 30 -3 268 -3 269 -31 6 c-40 8 -453 8 -539 0 l-65 -7 -17 -66 c-48
-184 -176 -339 -352 -425 -101 -50 -183 -69 -300 -69 -183 0 -319 55 -445 182
-101 102 -142 183 -175 344 l-5 27 -178 -2 -177 -3 -7 -235 c-4 -129 -9 -248
-12 -265 -9 -45 -53 -85 -94 -85 -42 0 -64 12 -88 47 -17 25 -20 54 -24 283
l-5 255 -300 3 c-346 4 -465 -3 -465 -24 0 -8 117 -247 261 -531 240 -475 261
-520 256 -556 -7 -49 -32 -76 -78 -83 -69 -10 -83 8 -244 323 -333 649 -459
890 -489 932 -46 64 -42 96 42 286 349 796 474 1080 502 1138 50 103 99 135
164 106z m9728 -56 c12 -10 40 -58 63 -108 50 -107 312 -700 397 -900 32 -77
65 -153 72 -170 8 -16 24 -52 36 -80 75 -167 76 -177 19 -266 -23 -35 -120
-219 -217 -409 -96 -190 -189 -372 -207 -405 -18 -33 -68 -129 -111 -214 -43
-85 -92 -167 -107 -183 -48 -47 -117 -35 -142 27 -19 43 -15 55 85 258 45 93
80 176 77 185 -3 15 -122 204 -343 550 -177 279 -447 681 -454 677 -4 -2 -9
-249 -12 -548 -5 -505 -6 -546 -23 -575 -25 -42 -66 -58 -105 -42 -59 24 -62
42 -67 384 -3 171 -10 319 -15 329 -8 15 -30 17 -236 17 -125 0 -232 -4 -237
-8 -6 -4 -19 -41 -29 -82 -27 -109 -97 -239 -165 -308 -112 -112 -248 -171
-417 -179 -126 -7 -220 12 -325 65 -184 93 -317 251 -360 429 -6 27 -19 54
-28 61 -12 10 -100 11 -421 7 -223 -4 -414 -8 -425 -10 -13 -3 -61 -60 -125
-147 -57 -79 -121 -166 -142 -194 -21 -28 -38 -57 -38 -64 0 -10 36 -12 178
-6 97 3 268 9 379 12 l202 7 30 -31 c40 -40 42 -83 3 -121 -25 -26 -36 -28
-127 -34 -192 -12 -813 -30 -837 -24 -14 4 -37 16 -53 28 -26 21 -27 26 -22
78 4 31 11 71 18 89 11 33 183 273 609 852 75 102 153 209 174 238 l38 52
-346 0 c-368 0 -401 4 -425 48 -26 48 -10 95 42 124 29 17 839 25 879 9 43
-16 58 -50 61 -133 l2 -74 -167 -233 c-92 -129 -165 -238 -162 -243 6 -9 638
-10 685 -1 21 4 29 14 39 46 40 136 191 288 341 343 44 17 49 17 93 0 60 -23
76 -40 76 -80 0 -47 -32 -81 -112 -122 -122 -61 -187 -144 -214 -273 -33 -160
45 -326 201 -429 61 -40 129 -61 221 -69 173 -14 333 76 402 226 22 48 26 70
27 152 0 91 -2 99 -39 174 -47 94 -107 157 -207 216 -52 30 -75 50 -84 74 -28
67 19 131 95 128 105 -5 301 -160 384 -305 21 -36 44 -69 52 -72 7 -3 126 -2
263 1 l250 6 6 24 c3 13 5 133 5 268 -1 254 1 271 42 299 46 32 156 8 205 -45
12 -13 91 -134 176 -269 260 -413 278 -441 365 -575 185 -286 325 -495 333
-495 10 0 59 90 172 315 139 278 146 343 61 535 -68 154 -253 578 -445 1019
-39 89 -32 160 18 191 25 15 90 5 115 -17z m-5885 -1407 l28 -24 -1 -529 c-1
-472 -3 -532 -18 -560 -32 -62 -98 -73 -140 -22 l-26 31 0 511 c0 322 4 526
10 549 19 69 93 90 147 44z m-2994 -1187 c12 -6 31 -21 42 -34 l20 -24 1450
-7 c798 -4 1460 -11 1473 -15 19 -7 22 -14 16 -32 -4 -12 -12 -25 -18 -30 -6
-4 -665 -4 -1465 -1 l-1454 7 -43 -23 c-36 -20 -49 -22 -80 -14 -77 19 -102
105 -44 157 32 29 67 34 103 16z m8058 -80 c48 -25 41 -107 -12 -134 -47 -25
-91 -16 -130 25 -16 16 -119 17 -1450 24 -998 5 -1437 10 -1446 18 -17 14 -16
23 4 43 16 16 114 17 1453 10 1304 -7 1439 -6 1466 8 34 19 87 22 115 6z
m-6754 -311 c11 -13 23 -31 26 -41 7 -17 579 -400 917 -613 17 -10 339 -19
1057 -30 482 -6 515 -9 495 -41 -5 -7 -235 -12 -777 -14 l-770 -4 -210 139
c-500 332 -747 486 -778 486 -43 0 -67 25 -67 71 0 63 66 92 107 47z m5461 -1
c6 -6 13 -24 17 -39 9 -36 -31 -78 -75 -78 -29 0 -161 -83 -785 -491 l-189
-124 -770 -3 c-491 -1 -773 1 -779 7 -7 7 -6 15 1 24 10 11 122 15 614 21 332
5 677 11 768 15 l165 6 160 104 c465 302 765 505 765 517 0 40 83 72 108 41z
m-4326 -178 c15 -8 189 -12 586 -13 l564 -1 19 -24 c23 -28 24 -50 5 -77 -14
-18 -30 -19 -288 -22 -150 -1 -408 2 -573 6 -170 5 -307 5 -317 0 -70 -35
-129 82 -65 127 26 18 41 19 69 4z m3186 -25 c14 -10 22 -25 22 -45 0 -52 -60
-90 -117 -73 -16 4 -270 6 -566 5 -483 -3 -540 -2 -562 13 -26 17 -32 45 -15
77 10 18 24 19 303 18 161 0 411 -4 557 -9 251 -8 267 -7 295 11 37 23 54 24
83 3z"/>
<path d="M7365 11477 c-13 -33 20 -108 40 -89 4 4 21 7 38 7 26 0 31 4 29 20
-4 26 -29 45 -58 45 -13 0 -27 8 -33 18 -9 16 -10 16 -16 -1z"/>
<path d="M7400 11480 c0 -6 7 -10 15 -10 8 0 15 2 15 4 0 2 -7 6 -15 10 -8 3
-15 1 -15 -4z"/>
<path d="M7480 11480 c0 -5 5 -10 10 -10 6 0 10 5 10 10 0 6 -4 10 -10 10 -5
0 -10 -4 -10 -10z"/>
<path d="M7548 11483 c7 -3 16 -2 19 1 4 3 -2 6 -13 5 -11 0 -14 -3 -6 -6z"/>
<path d="M6921 11453 c2 -27 15 -42 29 -33 10 7 11 10 3 10 -7 0 -13 7 -13 15
0 8 -4 15 -10 15 -5 0 -10 -3 -9 -7z"/>
<path d="M6850 11434 c0 -8 5 -12 10 -9 6 3 10 2 10 -4 0 -5 -7 -14 -16 -19
-19 -10 -11 -32 11 -32 9 0 14 9 12 22 -1 13 4 23 11 23 6 0 12 3 12 8 0 4 0
12 0 17 0 6 -11 10 -25 10 -16 0 -25 -6 -25 -16z"/>
<path d="M8005 11441 c-3 -6 -1 -11 4 -11 6 0 11 -7 11 -15 0 -8 5 -15 11 -15
14 0 7 42 -8 47 -6 2 -14 -1 -18 -6z"/>
<path d="M6811 11410 c-1 -18 16 -46 23 -40 2 3 -2 16 -9 30 -8 15 -14 19 -14
10z"/>
<path d="M6986 11403 c-4 -9 -2 -21 4 -27 7 -7 10 -2 10 17 0 31 -5 34 -14 10z"/>
<path d="M7088 11398 c15 -15 44 -20 40 -6 -2 6 -15 13 -28 15 -19 3 -22 1
-12 -9z"/>
<path d="M6676 11384 c-3 -9 -6 -16 -6 -17 0 -1 22 -2 50 -3 32 0 51 4 54 13
7 16 -6 17 -22 1 -10 -10 -18 -8 -41 5 -26 15 -30 15 -35 1z"/>
<path d="M8235 11390 c3 -5 8 -10 11 -10 2 0 4 5 4 10 0 6 -5 10 -11 10 -5 0
-7 -4 -4 -10z"/>
<path d="M8351 11373 c-7 -8 -11 -16 -8 -19 2 -2 10 2 17 11 17 20 9 27 -9 8z"/>
<path d="M7110 11356 c0 -2 7 -7 16 -10 8 -3 12 -2 9 4 -6 10 -25 14 -25 6z"/>
<path d="M8370 11356 c0 -2 7 -7 16 -10 8 -3 12 -2 9 4 -6 10 -25 14 -25 6z"/>
<path d="M8475 11300 c-3 -5 1 -10 9 -10 9 0 16 5 16 10 0 6 -4 10 -9 10 -6 0
-13 -4 -16 -10z"/>
<path d="M8378 11283 c7 -3 16 -2 19 1 4 3 -2 6 -13 5 -11 0 -14 -3 -6 -6z"/>
<path d="M8700 11265 c0 -8 5 -15 10 -15 6 0 10 7 10 15 0 8 -4 15 -10 15 -5
0 -10 -7 -10 -15z"/>
<path d="M8730 11236 c0 -8 5 -18 11 -22 8 -4 7 -9 -2 -14 -9 -6 -9 -12 4 -24
19 -20 38 -21 31 -2 -3 8 0 24 6 36 11 20 10 21 -9 15 -16 -5 -20 -3 -15 9 4
11 1 16 -10 16 -9 0 -16 -6 -16 -14z"/>
<path d="M8805 11210 c3 -5 13 -10 21 -10 8 0 12 5 9 10 -3 6 -13 10 -21 10
-8 0 -12 -4 -9 -10z"/>
<path d="M6133 11176 c3 -7 0 -19 -6 -25 -8 -8 -7 -11 6 -11 9 0 17 -4 17 -10
0 -5 5 -10 11 -10 6 0 9 9 6 20 -3 11 0 20 6 20 14 1 -22 30 -36 30 -5 0 -7
-6 -4 -14z"/>
<path d="M9220 11117 c0 -25 17 -39 39 -32 24 7 27 20 9 32 -22 13 -48 13 -48
0z"/>
<path d="M9394 11061 c-25 -13 -30 -20 -24 -36 4 -11 3 -23 -4 -27 -6 -4 -7
-11 -2 -15 4 -4 13 0 20 10 7 9 19 17 27 17 10 0 10 3 1 12 -19 19 -14 25 18
26 17 0 30 -4 30 -9 0 -5 5 -9 10 -9 6 0 10 8 10 17 0 9 -3 13 -7 10 -3 -4
-16 -1 -27 6 -18 11 -26 11 -52 -2z"/>
<path d="M9593 10972 c20 -21 22 -22 29 -5 6 16 8 16 14 -4 3 -13 12 -23 19
-23 7 0 16 -6 18 -12 4 -9 8 -10 14 -2 4 6 15 14 23 17 12 4 11 6 -2 6 -10 1
-18 6 -18 11 0 6 -11 10 -25 10 -16 0 -25 6 -25 15 0 11 -9 14 -34 12 l-35 -2
22 -23z"/>
<path d="M9733 10945 c0 -8 4 -15 9 -15 4 0 8 7 8 15 0 8 -4 15 -8 15 -5 0 -9
-7 -9 -15z"/>
<path d="M9610 10930 c8 -5 22 -9 30 -9 10 0 8 3 -5 9 -27 12 -43 12 -25 0z"/>
<path d="M10540 10379 c0 -5 5 -7 10 -4 6 3 10 8 10 11 0 2 -4 4 -10 4 -5 0
-10 -5 -10 -11z"/>
<path d="M10980 9956 c0 -9 5 -16 10 -16 6 0 10 4 10 9 0 6 -4 13 -10 16 -5 3
-10 -1 -10 -9z"/>
<path d="M3706 6294 c-13 -33 51 -73 69 -43 4 5 4 21 1 35 -5 18 -13 24 -35
24 -18 0 -31 -6 -35 -16z"/>
<path d="M11756 6244 c-20 -19 -20 -28 -2 -44 20 -16 56 -9 70 13 9 15 7 21
-8 33 -25 18 -41 18 -60 -2z"/>
<path d="M5017 5953 c-12 -11 -7 -50 7 -62 24 -20 56 4 56 39 0 26 -4 30 -28
30 -16 0 -32 -3 -35 -7z"/>
<path d="M10467 5946 c-9 -22 2 -45 25 -57 26 -14 50 6 46 40 -2 21 -9 27 -34
29 -21 2 -33 -2 -37 -12z"/>
<path d="M6180 5730 c0 -11 7 -20 15 -20 8 0 15 9 15 20 0 11 -7 20 -15 20 -8
0 -15 -9 -15 -20z"/>
<path d="M9353 5733 c-7 -2 -13 -11 -13 -20 0 -21 44 -13 48 10 3 17 -10 21
-35 10z"/>
</g>
</svg>
